<svg width="400" height="300" viewBox="0 0 400 300" fill="none" xmlns="http://www.w3.org/2000/svg">
  <defs>
    <linearGradient id="autoSyncGrad" x1="0%" y1="0%" x2="100%" y2="100%">
      <stop offset="0%" style="stop-color:#3B82F6;stop-opacity:1" />
      <stop offset="100%" style="stop-color:#1D4ED8;stop-opacity:1" />
    </linearGradient>
  </defs>
  <rect width="400" height="300" fill="url(#autoSyncGrad)"/>
  
  <!-- Database/Knowledge Base Icon -->
  <rect x="150" y="100" width="100" height="80" rx="10" fill="white" fill-opacity="0.9"/>
  <rect x="160" y="110" width="80" height="8" fill="#3B82F6"/>
  <rect x="160" y="125" width="60" height="6" fill="#93C5FD"/>
  <rect x="160" y="138" width="70" height="6" fill="#93C5FD"/>
  <rect x="160" y="151" width="50" height="6" fill="#93C5FD"/>
  
  <!-- Sync Arrows -->
  <path d="M280 130 L320 140 L280 150 L285 140 Z" fill="white"/>
  <path d="M120 150 L80 140 L120 130 L115 140 Z" fill="white"/>
  
  <!-- Connected Devices -->
  <circle cx="60" cy="140" r="25" fill="white" fill-opacity="0.8"/>
  <rect x="52" y="132" width="16" height="16" rx="2" fill="#3B82F6"/>
  
  <circle cx="340" cy="140" r="25" fill="white" fill-opacity="0.8"/>
  <rect x="332" y="132" width="16" height="16" rx="2" fill="#3B82F6"/>
  
  <text x="200" y="220" fill="white" font-family="Arial, sans-serif" font-size="18" font-weight="600" text-anchor="middle">Auto-Sync Knowledge Base</text>
  <text x="200" y="240" fill="white" font-family="Arial, sans-serif" font-size="12" fill-opacity="0.9" text-anchor="middle">Real-time data synchronization</text>
</svg>